<svg width="14" height="15" viewBox="0 0 14 15" fill="none" xmlns="http://www.w3.org/2000/svg">
<g clip-path="url(#clip0)">
<path d="M6.99999 0.5C4.20423 0.5 1.92972 2.77451 1.92972 5.57024C1.92972 9.03984 6.46711 14.1334 6.6603 14.3485C6.84175 14.5506 7.15855 14.5503 7.33968 14.3485C7.53286 14.1334 12.0703 9.03984 12.0703 5.57024C12.0702 2.77451 9.79572 0.5 6.99999 0.5ZM6.99999 8.12122C5.59337 8.12122 4.44903 6.97686 4.44903 5.57024C4.44903 4.16363 5.5934 3.01929 6.99999 3.01929C8.40658 3.01929 9.55091 4.16365 9.55091 5.57027C9.55091 6.97689 8.40658 8.12122 6.99999 8.12122Z" fill="white"/>
</g>
<defs>
<clipPath id="clip0">
<rect width="14" height="14" fill="white" transform="translate(0 0.5)"/>
</clipPath>
</defs>
</svg>
