<svg width="14" height="17" viewBox="0 0 14 17" fill="none" xmlns="http://www.w3.org/2000/svg">
<g clip-path="url(#clip0)">
<path d="M13.9864 6.61608C13.9536 5.87221 13.8333 5.3608 13.661 4.91766C13.4832 4.44728 13.2097 4.02614 12.8514 3.67605C12.5013 3.32052 12.0774 3.04425 11.6124 2.86926C11.1667 2.69694 10.658 2.57664 9.91413 2.54384C9.1647 2.50827 8.92679 2.50004 7.02602 2.50004C5.12526 2.50004 4.88735 2.50827 4.1407 2.54107C3.39682 2.57386 2.88542 2.69426 2.44238 2.86648C1.97189 3.04425 1.55076 3.31774 1.20067 3.67605C0.845131 4.02614 0.568969 4.45005 0.393871 4.91499C0.22155 5.3608 0.101257 5.86943 0.0684595 6.6133C0.0328843 7.36273 0.0246582 7.60065 0.0246582 9.50141C0.0246582 11.4022 0.0328843 11.6401 0.0656818 12.3867C0.0984794 13.1306 0.218879 13.642 0.3912 14.0852C0.568969 14.5555 0.845131 14.9767 1.20067 15.3268C1.55076 15.6823 1.97467 15.9586 2.4396 16.1336C2.88542 16.3059 3.39404 16.4262 4.13802 16.459C4.88457 16.4919 5.12259 16.5 7.02335 16.5C8.92412 16.5 9.16203 16.4919 9.90868 16.459C10.6526 16.4262 11.164 16.3059 11.607 16.1336C12.5479 15.7698 13.2917 15.0259 13.6555 14.0852C13.8277 13.6393 13.9481 13.1306 13.9809 12.3867C14.0137 11.6401 14.0219 11.4022 14.0219 9.50141C14.0219 7.60065 14.0192 7.36273 13.9864 6.61608ZM12.7256 12.332C12.6955 13.0158 12.5807 13.385 12.4849 13.6311C12.2497 14.241 11.7656 14.7251 11.1557 14.9603C10.9096 15.0561 10.5377 15.1709 9.85666 15.2009C9.11823 15.2338 8.89677 15.2419 7.0288 15.2419C5.16084 15.2419 4.9366 15.2338 4.20084 15.2009C3.51712 15.1709 3.1479 15.0561 2.90176 14.9603C2.59825 14.8482 2.32198 14.6704 2.09774 14.4379C1.86527 14.2109 1.6875 13.9374 1.57533 13.6339C1.47961 13.3878 1.36476 13.0158 1.33474 12.3348C1.30184 11.5964 1.29372 11.3748 1.29372 9.50686C1.29372 7.63889 1.30184 7.41465 1.33474 6.67901C1.36476 5.99528 1.47961 5.62607 1.57533 5.37992C1.6875 5.07631 1.86527 4.80014 2.10052 4.5758C2.32743 4.34333 2.60092 4.16556 2.90454 4.05349C3.15068 3.95777 3.52267 3.84293 4.20362 3.8128C4.94205 3.78 5.16362 3.77178 7.03147 3.77178C8.90221 3.77178 9.12368 3.78 9.85943 3.8128C10.5432 3.84293 10.9124 3.95777 11.1585 4.05349C11.462 4.16556 11.7383 4.34333 11.9625 4.5758C12.195 4.80282 12.3728 5.07631 12.4849 5.37992C12.5807 5.62607 12.6955 5.99795 12.7256 6.67901C12.7584 7.41743 12.7667 7.63889 12.7667 9.50686C12.7667 11.3748 12.7584 11.5936 12.7256 12.332Z" fill="white"/>
<path d="M7.02597 5.905C5.04049 5.905 3.42957 7.51582 3.42957 9.50141C3.42957 11.487 5.04049 13.0978 7.02597 13.0978C9.01156 13.0978 10.6224 11.487 10.6224 9.50141C10.6224 7.51582 9.01156 5.905 7.02597 5.905ZM7.02597 11.8343C5.73789 11.8343 4.69307 10.7896 4.69307 9.50141C4.69307 8.21322 5.73789 7.16851 7.02597 7.16851C8.31416 7.16851 9.35887 8.21322 9.35887 9.50141C9.35887 10.7896 8.31416 11.8343 7.02597 11.8343Z" fill="white"/>
<path d="M11.6042 5.76281C11.6042 6.22646 11.2283 6.60241 10.7645 6.60241C10.3009 6.60241 9.92493 6.22646 9.92493 5.76281C9.92493 5.29905 10.3009 4.92321 10.7645 4.92321C11.2283 4.92321 11.6042 5.29905 11.6042 5.76281Z" fill="white"/>
</g>
<defs>
<clipPath id="clip0">
<rect width="14" height="16" fill="white" transform="translate(0 0.5)"/>
</clipPath>
</defs>
</svg>
